<mxGraphModel dx="820" dy="646" grid="1" gridSize="10" guides="1" tooltips="1" connect="1" arrows="1" fold="1" page="1" pageScale="1" pageWidth="850" pageHeight="1100" math="0" shadow="0">
  <root>
    <mxCell id="0" />
    <mxCell id="1" parent="0" />
    <!-- Start -->
    <mxCell id="2" value="เริ่มต้น" style="ellipse;whiteSpace=wrap;html=1;strokeWidth=2;fillColor=#d5e8d4;strokeColor=#82b366;" vertex="1" parent="1">
      <mxGeometry x="380" y="20" width="80" height="40" as="geometry" />
    </mxCell>
    <!-- Process: Declare Variables -->
    <mxCell id="3" value="ประกาศตัวแปร&lt;br&gt;num1, num2, num3, sum" style="text;html=1;strokeWidth=2;shape=process;whiteSpace=wrap;fillColor=#f8cecc;strokeColor=#b85450;" vertex="1" parent="1">
      <mxGeometry x="360" y="90" width="120" height="50" as="geometry" />
    </mxCell>
    <!-- Output 1 -->
    <mxCell id="4" value="แสดง: &quot;กรอกหมายเลขตัวแรก: &quot;" style="shape=parallelogram;perimeter=parallelogramPerimeter;whiteSpace=wrap;html=1;strokeWidth=2;fillColor=#fff2cc;strokeColor=#d6b656;" vertex="1" parent="1">
      <mxGeometry x="340" y="170" width="160" height="50" as="geometry" />
    </mxCell>
    <!-- Input 1 -->
    <mxCell id="5" value="รับค่า num1" style="shape=parallelogram;perimeter=parallelogramPerimeter;whiteSpace=wrap;html=1;strokeWidth=2;fillColor=#fff2cc;strokeColor=#d6b656;" vertex="1" parent="1">
      <mxGeometry x="360" y="250" width="120" height="50" as="geometry" />
    </mxCell>
    <!-- Output 2 -->
    <mxCell id="6" value="แสดง: &quot;กรอกหมายเลขตัวที่สอง: &quot;" style="shape=parallelogram;perimeter=parallelogramPerimeter;whiteSpace=wrap;html=1;strokeWidth=2;fillColor=#fff2cc;strokeColor=#d6b656;" vertex="1" parent="1">
      <mxGeometry x="340" y="330" width="160" height="50" as="geometry" />
    </mxCell>
    <!-- Input 2 -->
    <mxCell id="7" value="รับค่า num2" style="shape=parallelogram;perimeter=parallelogramPerimeter;whiteSpace=wrap;html=1;strokeWidth=2;fillColor=#fff2cc;strokeColor=#d6b656;" vertex="1" parent="1">
      <mxGeometry x="360" y="410" width="120" height="50" as="geometry" />
    </mxCell>
    <!-- Output 3 -->
    <mxCell id="8" value="แสดง: &quot;กรอกหมายเลขตัวที่สาม: &quot;" style="shape=parallelogram;perimeter=parallelogramPerimeter;whiteSpace=wrap;html=1;strokeWidth=2;fillColor=#fff2cc;strokeColor=#d6b656;" vertex="1" parent="1">
      <mxGeometry x="340" y="490" width="160" height="50" as="geometry" />
    </mxCell>
    <!-- Input 3 -->
    <mxCell id="9" value="รับค่า num3" style="shape=parallelogram;perimeter=parallelogramPerimeter;whiteSpace=wrap;html=1;strokeWidth=2;fillColor=#fff2cc;strokeColor=#d6b656;" vertex="1" parent="1">
      <mxGeometry x="360" y="570" width="120" height="50" as="geometry" />
    </mxCell>
    <!-- Process: Calculation -->
    <mxCell id="10" value="คำนวณผลรวม:&lt;br&gt;sum = num1 + num2 + num3" style="text;html=1;strokeWidth=2;shape=process;whiteSpace=wrap;fillColor=#f8cecc;strokeColor=#b85450;" vertex="1" parent="1">
      <mxGeometry x="340" y="650" width="160" height="50" as="geometry" />
    </mxCell>
    <!-- Output Result -->
    <mxCell id="11" value="แสดงผลลัพธ์:&lt;br&gt;&quot;Answer = &quot; และ sum" style="shape=parallelogram;perimeter=parallelogramPerimeter;whiteSpace=wrap;html=1;strokeWidth=2;fillColor=#fff2cc;strokeColor=#d6b656;" vertex="1" parent="1">
      <mxGeometry x="340" y="730" width="160" height="50" as="geometry" />
    </mxCell>
    <!-- Stop -->
    <mxCell id="12" value="สิ้นสุด" style="ellipse;whiteSpace=wrap;html=1;strokeWidth=2;fillColor=#d5e8d4;strokeColor=#82b366;" vertex="1" parent="1">
      <mxGeometry x="380" y="810" width="80" height="40" as="geometry" />
    </mxCell>
    <!-- Connections (Edges) -->
    <mxCell id="13" value="" style="endArrow=classic;html=1;exitX=0.5;exitY=1;entryX=0.5;entryY=0" edge="1" parent="1" source="2" target="3">
      <mxGeometry width="50" height="50" relative="1" as="geometry">
        <mxPoint x="420" y="60" as="sourcePoint" />
        <mxPoint x="420" y="90" as="targetPoint" />
      </mxGeometry>
    </mxCell>
    <mxCell id="14" value="" style="endArrow=classic;html=1;exitX=0.5;exitY=1;entryX=0.5;entryY=0" edge="1" parent="1" source="3" target="4">
      <mxGeometry width="50" height="50" relative="1" as="geometry">
        <mxPoint x="420" y="140" as="sourcePoint" />
        <mxPoint x="420" y="170" as="targetPoint" />
      </mxGeometry>
    </mxCell>
    <mxCell id="15" value="" style="endArrow=classic;html=1;exitX=0.5;exitY=1;entryX=0.5;entryY=0" edge="1" parent="1" source="4" target="5">
      <mxGeometry width="50" height="50" relative="1" as="geometry">
        <mxPoint x="420" y="220" as="sourcePoint" />
        <mxPoint x="420" y="250" as="targetPoint" />
      </mxGeometry>
    </mxCell>
    <mxCell id="16" value="" style="endArrow=classic;html=1;exitX=0.5;exitY=1;entryX=0.5;entryY=0" edge="1" parent="1" source="5" target="6">
      <mxGeometry width="50" height="50" relative="1" as="geometry">
        <mxPoint x="420" y="300" as="sourcePoint" />
        <mxPoint x="420" y="330" as="targetPoint" />
      </mxGeometry>
    </mxCell>
    <mxCell id="17" value="" style="endArrow=classic;html=1;exitX=0.5;exitY=1;entryX=0.5;entryY=0" edge="1" parent="1" source="6" target="7">
      <mxGeometry width="50" height="50" relative="1" as="geometry">
        <mxPoint x="420" y="380" as="sourcePoint" />
        <mxPoint x="420" y="410" as="targetPoint" />
      </mxGeometry>
    </mxCell>
    <mxCell id="18" value="" style="endArrow=classic;html=1;exitX=0.5;exitY=1;entryX=0.5;entryY=0" edge="1" parent="1" source="7" target="8">
      <mxGeometry width="50" height="50" relative="1" as="geometry">
        <mxPoint x="420" y="460" as="sourcePoint" />
        <mxPoint x="420" y="490" as="targetPoint" />
      </mxGeometry>
    </mxCell>
    <mxCell id="19" value="" style="endArrow=classic;html=1;exitX=0.5;exitY=1;entryX=0.5;entryY=0" edge="1" parent="1" source="8" target="9">
      <mxGeometry width="50" height="50" relative="1" as="geometry">
        <mxPoint x="420" y="540" as="sourcePoint" />
        <mxPoint x="420" y="570" as="targetPoint" />
      </mxGeometry>
    </mxCell>
    <mxCell id="20" value="" style="endArrow=classic;html=1;exitX=0.5;exitY=1;entryX=0.5;entryY=0" edge="1" parent="1" source="9" target="10">
      <mxGeometry width="50" height="50" relative="1" as="geometry">
        <mxPoint x="420" y="620" as="sourcePoint" />
        <mxPoint x="420" y="650" as="targetPoint" />
      </mxGeometry>
    </mxCell>
    <mxCell id="21" value="" style="endArrow=classic;html=1;exitX=0.5;exitY=1;entryX=0.5;entryY=0" edge="1" parent="1" source="10" target="11">
      <mxGeometry width="50" height="50" relative="1" as="geometry">
        <mxPoint x="420" y="700" as="sourcePoint" />
        <mxPoint x="420" y="730" as="targetPoint" />
      </mxGeometry>
    </mxCell>
    <mxCell id="22" value="" style="endArrow=classic;html=1;exitX=0.5;exitY=1;entryX=0.5;entryY=0" edge="1" parent="1" source="11" target="12">
      <mxGeometry width="50" height="50" relative="1" as="geometry">
        <mxPoint x="420" y="780" as="sourcePoint" />
        <mxPoint x="420" y="810" as="targetPoint" />
      </mxGeometry>
    </mxCell>
  </root>
</mxGraphModel>
